<svg width="170.000000" height="33.000000" viewBox="0 0 170 33" fill="none" xmlns="http://www.w3.org/2000/svg" xmlns:xlink="http://www.w3.org/1999/xlink">
	<desc>
			Created with Pixso.
	</desc>
	<defs/>
	<path id="sunnyside" d="M13.6494 24.2375Q11.4314 25.7236 8.05322 25.7236Q3.69849 25.7236 1.65601 23.5505Q0.369141 22.1816 0 19.9502L5.11865 18.7888Q5.3291 19.7527 5.92456 20.2917Q6.67944 20.9751 8.05322 20.9751Q9.35742 20.9751 9.64429 20.4348Q9.72534 20.2825 9.72534 20.0869Q9.72534 19.9089 9.65088 19.771Q9.59692 19.6707 9.50342 19.5916C9.35571 19.4663 9.03149 19.3127 8.53101 19.1304L6.48364 18.3789L5.90332 18.1738C5.4939 18.0374 5.16968 17.9177 4.93091 17.8152C4.69214 17.7126 4.34521 17.5476 3.89014 17.3198C3.43506 17.092 3.05981 16.8474 2.76392 16.5854C2.46826 16.3235 2.16113 16.0161 1.84277 15.6631Q1.71167 15.5178 1.59839 15.3596L1.59839 15.3594Q1.29932 14.9414 1.12598 14.4333C0.966797 13.9663 0.887207 13.4597 0.887207 12.9131Q0.887207 11.6233 1.3877 10.5715Q1.90796 9.47852 2.96875 8.64282Q3.23486 8.43335 3.51831 8.25049L3.51831 8.25049Q5.45166 7.00317 8.1897 7.00317Q11.0806 7.00317 12.9387 8.38818Q14.4585 9.52124 15.2874 11.5808L10.2031 13.0156Q9.78662 12.1399 9.10327 11.7988Q8.66675 11.5808 8.12158 11.5808Q7.40649 11.5808 7.14551 11.925Q6.99536 12.123 6.99536 12.4348C6.99536 12.6396 7.08643 12.8105 7.26831 12.9473Q7.54126 13.1521 8.1897 13.3572L10.1689 14.177C13.8542 15.4524 15.7539 17.3655 15.8677 19.9163Q15.8677 21.5256 15.1528 22.7002Q14.6086 23.595 13.6494 24.2375ZM27.4961 24.7695Q26.1001 25.7236 24.0525 25.7236Q21.6221 25.7236 20.1375 24.5386Q17.8079 22.679 17.8079 17.9006L17.8079 7.37891L24.8372 7.37891L24.8372 17.2173Q24.8372 19.2659 25.7976 19.9341Q26.2627 20.2578 26.9529 20.2578Q27.6172 20.2578 28.0696 19.948Q29.0344 19.2874 29.0344 17.2173L29.0344 7.37891L36.064 7.37891L36.064 25.3479L29.0344 25.3479L29.0344 23.1274Q28.4028 24.1499 27.4961 24.7695ZM46.1938 15.5093L46.1938 25.3479L39.1643 25.3479L39.1643 7.37891L46.1938 7.37891L46.1938 9.59937C47.2632 7.86841 48.9238 7.00317 51.176 7.00317Q53.6064 7.00317 55.0908 8.18799Q57.4207 10.0479 57.4207 14.8262L57.4207 25.3479L50.3911 25.3479L50.3911 15.5093C50.3911 13.4824 49.6858 12.469 48.2754 12.469Q47.6111 12.469 47.1589 12.7786Q46.1938 13.4392 46.1938 15.5093ZM67.3457 15.5093L67.3457 25.3479L60.3164 25.3479L60.3164 7.37891L67.3457 7.37891L67.3457 9.59937C68.415 7.86841 70.0757 7.00317 72.3279 7.00317C76.491 7.00317 78.5725 9.61084 78.5725 14.8262L78.5725 25.3479L71.543 25.3479L71.543 15.5093C71.543 13.4824 70.8379 12.469 69.4272 12.469C68.0396 12.469 67.3457 13.4824 67.3457 15.5093ZM100.714 7.37891L89.3167 33L82.4236 33L86.5867 23.6055L79.1135 7.37891L86.7915 7.37891L89.8967 16.5684L93.3774 7.37891L100.714 7.37891ZM113.71 24.2375C112.232 25.2283 110.366 25.7236 108.114 25.7236Q103.759 25.7236 101.717 23.5505Q100.43 22.1816 100.061 19.9502L105.179 18.7888C105.498 20.2463 106.476 20.9751 108.114 20.9751C109.229 20.9751 109.786 20.6792 109.786 20.0869C109.786 19.8821 109.712 19.7168 109.564 19.5916C109.417 19.4663 109.092 19.3127 108.592 19.1304L106.544 18.3789L105.964 18.1738C105.555 18.0374 105.23 17.9177 104.992 17.8152C104.753 17.7126 104.406 17.5476 103.951 17.3198C103.496 17.092 103.121 16.8474 102.825 16.5854C102.529 16.3235 102.222 16.0161 101.904 15.6631Q101.772 15.5178 101.659 15.3596Q101.36 14.9414 101.187 14.4333C101.028 13.9663 100.948 13.4597 100.948 12.9131C100.948 11.1594 101.642 9.73608 103.03 8.64282C104.417 7.5498 106.157 7.00317 108.25 7.00317C111.754 7.00317 114.12 8.52905 115.348 11.5808L110.264 13.0156C109.809 12.0591 109.115 11.5808 108.182 11.5808C107.432 11.5808 107.056 11.8655 107.056 12.4348C107.056 12.6396 107.147 12.8105 107.329 12.9473C107.511 13.0837 107.818 13.2205 108.25 13.3572L110.23 14.177C113.915 15.4524 115.815 17.3655 115.928 19.9163Q115.928 21.5256 115.214 22.7002Q114.669 23.595 113.71 24.2375ZM124.489 5.39746C123.806 5.98975 122.839 6.28564 121.588 6.28564Q119.711 6.28564 118.688 5.39746C118.005 4.80542 117.664 4.05371 117.664 3.14282Q117.664 2.31836 118.007 1.67725Q118.246 1.22925 118.653 0.871094C119.313 0.290283 120.291 0 121.588 0C122.885 0 123.863 0.290283 124.523 0.871094Q124.93 1.22925 125.169 1.67725Q125.512 2.31836 125.512 3.14282Q125.512 3.84229 125.244 4.4165Q124.988 4.96387 124.489 5.39746ZM125.103 25.3479L118.073 25.3479L118.073 7.37891L125.103 7.37891L125.103 25.3479ZM139.631 24.5547Q138.149 25.7236 135.745 25.7236C133.333 25.7236 131.325 24.8411 129.722 23.0762C128.118 21.311 127.316 19.0735 127.316 16.3633C127.316 13.6533 128.118 11.4155 129.722 9.65063C131.325 7.8855 133.333 7.00317 135.745 7.00317Q138.11 7.00317 139.583 8.14966Q140.341 8.73975 140.863 9.63354L140.863 0.64917L147.893 0.64917L147.893 25.3479L140.863 25.3479L140.863 23.1274Q140.358 23.9814 139.631 24.5547ZM137.656 20.3604C136.655 20.3604 135.853 19.9844 135.25 19.2329C134.647 18.4814 134.345 17.5249 134.345 16.3633C134.345 15.2019 134.641 14.2454 135.233 13.4939C135.847 12.7422 136.655 12.3665 137.656 12.3665C138.656 12.3665 139.458 12.7422 140.061 13.4939C140.664 14.2454 140.966 15.2019 140.966 16.3633C140.966 17.5249 140.664 18.4814 140.061 19.2329C139.458 19.9844 138.656 20.3604 137.656 20.3604ZM168.976 22.615C166.974 24.6873 164.188 25.7236 160.616 25.7236C157.385 25.7236 154.821 24.8411 152.921 23.0762C151.021 21.311 150.072 19.0962 150.072 16.4316C150.072 13.8354 150.97 11.615 152.768 9.77026Q153.336 9.18652 153.991 8.72583Q156.442 7.00317 160.104 7.00317C162.993 7.00317 165.365 7.823 167.219 9.46265Q168.078 10.2229 168.672 11.1526Q170 13.2314 170 16.1584C170 16.8188 169.943 17.354 169.829 17.7639L156.624 17.7639C156.624 18.3333 157.05 18.9255 157.903 19.5403Q159.183 20.4626 161.23 20.4626C163.027 20.4626 164.643 19.8821 166.076 18.7205L168.976 22.615ZM163.653 14.5186L156.624 14.5186C156.669 13.676 157.033 13.0327 157.715 12.5886C158.398 12.1445 159.206 11.9224 160.138 11.9224C161.071 11.9224 161.878 12.1501 162.561 12.6055C163.243 13.061 163.607 13.6987 163.653 14.5186Z" clip-rule="evenodd" fill="#2C7566" fill-opacity="1.000000" fill-rule="evenodd"/>
</svg>
